<svg aria-hidden="true" style="position: absolute; width: 0; height: 0; overflow: hidden;" version="1.1" xmlns="http://www.w3.org/2000/svg" xmlns:xlink="http://www.w3.org/1999/xlink">
<defs>
<symbol id="icon-child" viewBox="0 0 20 28">
<path d="M18.562 8.563l-4.562 4.562v12.875c0 0.969-0.781 1.75-1.75 1.75s-1.75-0.781-1.75-1.75v-6h-1v6c0 0.969-0.781 1.75-1.75 1.75s-1.75-0.781-1.75-1.75v-12.875l-4.562-4.562c-0.578-0.594-0.578-1.531 0-2.125 0.594-0.578 1.531-0.578 2.125 0l3.563 3.563h5.75l3.563-3.563c0.594-0.578 1.531-0.578 2.125 0 0.578 0.594 0.578 1.531 0 2.125zM13.5 6c0 1.937-1.563 3.5-3.5 3.5s-3.5-1.563-3.5-3.5 1.563-3.5 3.5-3.5 3.5 1.563 3.5 3.5z"></path>
</symbol>
<symbol id="icon-thumbs-o-down" viewBox="0 0 24 28">
<path d="M4 7c0-0.547-0.453-1-1-1s-1 0.453-1 1 0.453 1 1 1 1-0.453 1-1zM22 16c0-0.578-0.438-1.984-1.172-2 0.328-0.375 0.547-1.109 0.547-1.609 0-0.734-0.297-1.359-0.828-1.859 0.187-0.328 0.281-0.703 0.281-1.078 0-0.719-0.359-1.609-1.016-1.969 0.047-0.281 0.078-0.578 0.078-0.875 0-1.828-1.156-2.609-2.891-2.609h-2c-1.844 0-3.625 0.547-5.344 1.141-0.844 0.297-2.281 0.859-3.156 0.859h-0.5v10h0.5c1.234 0 3.094 2.672 3.797 3.578 0.391 0.484 0.766 0.969 1.203 1.422 1.516 1.594 1 3.984 2 5 2.141 0 2.5-1.172 2.5-3 0-1.844-1.5-3.172-1.5-5h5.5c1.047 0 2-0.938 2-2zM24 16.016c0 2.156-1.844 3.984-4 3.984h-2.75c0.469 0.969 0.75 1.906 0.75 3 0 1.031-0.063 1.969-0.547 2.906-0.766 1.516-2.328 2.094-3.953 2.094-0.531 0-1.031-0.219-1.406-0.578-1.563-1.531-1.078-4-2-5.016-0.594-0.625-1.141-1.297-1.672-1.984-0.469-0.609-1.531-2.016-2.141-2.422h-4.281c-1.109 0-2-0.891-2-2v-10c0-1.109 0.891-2 2-2h4.5c0.438 0 1.703-0.469 2.156-0.625 2.25-0.781 4.203-1.375 6.609-1.375h1.75c2.844 0 4.891 1.687 4.875 4.609v0.078c0.609 0.781 0.938 1.781 0.938 2.781 0 0.219-0.016 0.453-0.047 0.672 0.391 0.688 0.594 1.469 0.594 2.25 0 0.359-0.047 0.734-0.141 1.078 0.5 0.75 0.766 1.641 0.766 2.547z"></path>
</symbol>
<symbol id="icon-star" viewBox="0 0 32 32">
<path d="M31.881 12.557c-0.277-0.799-0.988-1.384-1.844-1.511l-8.326-1.238-3.619-7.514c-0.381-0.789-1.196-1.294-2.092-1.294s-1.711 0.505-2.092 1.294l-3.619 7.514-8.327 1.238c-0.855 0.127-1.566 0.712-1.842 1.511-0.275 0.801-0.067 1.683 0.537 2.285l6.102 6.092-1.415 8.451c-0.144 0.851 0.225 1.705 0.948 2.203 0.397 0.273 0.864 0.412 1.331 0.412 0.384 0 0.769-0.094 1.118-0.281l7.259-3.908 7.26 3.908c0.349 0.187 0.734 0.281 1.117 0.281 0.467 0 0.934-0.139 1.332-0.412 0.723-0.498 1.090-1.352 0.947-2.203l-1.416-8.451 6.104-6.092c0.603-0.603 0.81-1.485 0.537-2.285zM23.588 19.363c-0.512 0.51-0.744 1.229-0.627 1.934l1.416 8.451-7.26-3.906c-0.348-0.188-0.732-0.281-1.118-0.281-0.384 0-0.769 0.094-1.117 0.281l-7.26 3.906 1.416-8.451c0.118-0.705-0.114-1.424-0.626-1.934l-6.102-6.092 8.326-1.24c0.761-0.113 1.416-0.589 1.743-1.268l3.621-7.512 3.62 7.513c0.328 0.679 0.982 1.154 1.742 1.268l8.328 1.24-6.102 6.091z"></path>
</symbol>
<symbol id="icon-like" viewBox="0 0 32 32">
<path d="M29.164 10.472c-1.25-0.328-4.189-0.324-8.488-0.438 0.203-0.938 0.25-1.784 0.25-3.286 0-3.588-2.614-6.748-4.926-6.748-1.633 0-2.979 1.335-3 2.977-0.022 2.014-0.645 5.492-4 7.256-0.246 0.13-0.95 0.477-1.053 0.522l0.053 0.045c-0.525-0.453-1.253-0.8-2-0.8h-3c-1.654 0-3 1.346-3 3v16c0 1.654 1.346 3 3 3h3c1.19 0 2.186-0.719 2.668-1.727 0.012 0.004 0.033 0.010 0.047 0.012 0.066 0.018 0.144 0.037 0.239 0.062 0.018 0.005 0.027 0.007 0.046 0.012 0.576 0.143 1.685 0.408 4.055 0.953 0.508 0.116 3.192 0.688 5.972 0.688h5.467c1.666 0 2.867-0.641 3.582-1.928 0.010-0.020 0.24-0.469 0.428-1.076 0.141-0.457 0.193-1.104 0.023-1.76 1.074-0.738 1.42-1.854 1.645-2.58 0.377-1.191 0.264-2.086 0.002-2.727 0.604-0.57 1.119-1.439 1.336-2.766 0.135-0.822-0.010-1.668-0.389-2.372 0.566-0.636 0.824-1.436 0.854-2.176l0.012-0.209c0.007-0.131 0.013-0.212 0.013-0.5 0-1.263-0.875-2.874-2.836-3.434zM7 29c0 0.553-0.447 1-1 1h-3c-0.553 0-1-0.447-1-1v-16c0-0.553 0.447-1 1-1h3c0.553 0 1 0.447 1 1v16zM29.977 14.535c-0.020 0.494-0.227 1.465-1.977 1.465-1.5 0-2 0-2 0-0.277 0-0.5 0.224-0.5 0.5s0.223 0.5 0.5 0.5c0 0 0.438 0 1.938 0s1.697 1.244 1.6 1.844c-0.124 0.746-0.474 2.156-2.163 2.156-1.687 0-2.375 0-2.375 0-0.277 0-0.5 0.223-0.5 0.5 0 0.275 0.223 0.5 0.5 0.5 0 0 1.188 0 1.969 0 1.688 0 1.539 1.287 1.297 2.055-0.319 1.009-0.514 1.945-2.641 1.945-0.719 0-1.631 0-1.631 0-0.277 0-0.5 0.223-0.5 0.5 0 0.275 0.223 0.5 0.5 0.5 0 0 0.693 0 1.568 0 1.094 0 1.145 1.035 1.031 1.406-0.125 0.406-0.273 0.707-0.279 0.721-0.302 0.545-0.789 0.873-1.82 0.873h-5.467c-2.746 0-5.47-0.623-5.54-0.639-4.154-0.957-4.373-1.031-4.634-1.105 0 0-0.846-0.143-0.846-0.881l-0.007-13.812c0-0.469 0.299-0.893 0.794-1.042 0.062-0.024 0.146-0.050 0.206-0.075 4.568-1.892 5.959-6.040 6-9.446 0.006-0.479 0.375-1 1-1 1.057 0 2.926 2.122 2.926 4.748 0 2.371-0.096 2.781-0.926 5.252 10 0 9.93 0.144 10.812 0.375 1.094 0.313 1.188 1.219 1.188 1.531 0 0.343-0.010 0.293-0.023 0.629zM4.5 26c-0.828 0-1.5 0.672-1.5 1.5s0.672 1.5 1.5 1.5 1.5-0.672 1.5-1.5-0.672-1.5-1.5-1.5zM4.5 28c-0.275 0-0.5-0.225-0.5-0.5s0.225-0.5 0.5-0.5 0.5 0.225 0.5 0.5-0.225 0.5-0.5 0.5z"></path>
</symbol>
<symbol id="icon-play" viewBox="0 0 32 32">
<path d="M30.662 5.003c-4.488-0.645-9.448-1.003-14.662-1.003s-10.174 0.358-14.662 1.003c-0.86 3.366-1.338 7.086-1.338 10.997s0.477 7.63 1.338 10.997c4.489 0.645 9.448 1.003 14.662 1.003s10.174-0.358 14.662-1.003c0.86-3.366 1.338-7.086 1.338-10.997s-0.477-7.63-1.338-10.997zM12 22v-12l10 6-10 6z"></path>
</symbol>
<symbol id="icon-film" viewBox="0 0 32 32">
<path d="M0 4v24h32v-24h-32zM6 26h-4v-4h4v4zM6 18h-4v-4h4v4zM6 10h-4v-4h4v4zM24 26h-16v-20h16v20zM30 26h-4v-4h4v4zM30 18h-4v-4h4v4zM30 10h-4v-4h4v4zM12 10v12l8-6z"></path>
</symbol>
<symbol id="icon-display" viewBox="0 0 32 32">
<path d="M0 2v20h32v-20h-32zM30 20h-28v-16h28v16zM21 24h-10l-1 4-2 2h16l-2-2z"></path>
</symbol>
<symbol id="icon-play3" viewBox="0 0 32 32">
<path d="M6 4l20 12-20 12z"></path>
</symbol>
<symbol id="icon-volume-mute2" viewBox="0 0 32 32">
<path d="M30 19.348v2.652h-2.652l-3.348-3.348-3.348 3.348h-2.652v-2.652l3.348-3.348-3.348-3.348v-2.652h2.652l3.348 3.348 3.348-3.348h2.652v2.652l-3.348 3.348 3.348 3.348z"></path>
<path d="M13 30c-0.26 0-0.516-0.102-0.707-0.293l-7.707-7.707h-3.586c-0.552 0-1-0.448-1-1v-10c0-0.552 0.448-1 1-1h3.586l7.707-7.707c0.286-0.286 0.716-0.372 1.090-0.217s0.617 0.519 0.617 0.924v26c0 0.404-0.244 0.769-0.617 0.924-0.124 0.051-0.254 0.076-0.383 0.076z"></path>
</symbol>
</defs>
</svg>
